<?xml version="1.0" encoding="utf-8"?>
<!-- Generator: Adobe Illustrator 26.3.1, SVG Export Plug-In . SVG Version: 6.00 Build 0)  -->
<svg version="1.1" id="Camada_1" xmlns="http://www.w3.org/2000/svg" xmlns:xlink="http://www.w3.org/1999/xlink" x="0px" y="0px"
	 viewBox="0 0 63.8 37.9" style="enable-background:new 0 0 63.8 37.9;" xml:space="preserve">
<style type="text/css">
	.st0{fill:#FFFFFF;}
</style>
<polygon class="st0" points="-259.8,1474.8 -259.8,1493.2 -280.4,1493.2 -280.4,1488.3 -285.6,1493.6 -289.2,1490 -283.2,1484 
	-289.2,1478 -285.6,1474.4 -280.4,1479.6 -280.4,1474.8 "/>
<g>
	<path d="M58.9,26c-0.2-0.3-0.2-0.6-0.3-1c0-0.5-0.2-1-0.4-1.5c-0.2-0.3-0.3-0.7-0.4-1c-0.1-0.4-0.1-0.9-0.1-1.4c0-0.9,0-1.8,0-2.7
		c0-0.5,0-1.1,0-1.6c0-0.1-0.1-0.3-0.1-0.4c0-0.1,0-0.1,0-0.2c0.1-0.2,0.1-0.4,0-0.5c-0.1-0.2-0.1-0.3-0.1-0.5
		c0-0.1,0.1-0.2,0.1-0.3c0.2-0.4,0.4-0.8,0.5-1.3c0-0.2,0-0.4-0.1-0.5c-0.1-0.2-0.1-0.3-0.1-0.5c0-0.1,0-0.3,0-0.4
		c0-0.1-0.1-0.2-0.2-0.2c-0.1,0-0.1-0.1-0.1-0.1c-0.1-0.3-0.2-0.5-0.2-0.8c-0.1-0.3-0.1-0.6-0.1-0.9c0-0.1-0.1-0.2-0.1-0.3
		C57,9.5,57,9.2,57,9c0-0.3,0-0.7-0.1-1c0-0.2-0.1-0.5-0.2-0.7c-0.2-0.6-0.6-1.1-1-1.6c-0.1-0.1-0.2-0.2-0.3-0.3
		c-0.3-0.3-0.5-0.6-0.6-1c0,0,0-0.1,0-0.1c0-0.1,0-0.3-0.2-0.3c-0.1,0-0.1-0.1-0.1-0.2c-0.1-0.3-0.2-0.6-0.2-0.9c0-0.1,0-0.2,0-0.2
		c0-0.1-0.1-0.2-0.2-0.3c-0.2,0-0.3-0.1-0.3-0.3c-0.1-0.2-0.1-0.2-0.3-0.2c-0.6,0.1-1.3,0.2-1.9,0.4c-0.7,0.1-1.4,0.2-2.2,0.4
		c-0.9,0.2-1.7,0.3-2.6,0.5c-0.8,0.1-1.6,0.3-2.4,0.4c-0.7,0.1-1.4,0.2-2.2,0.4c-1,0.2-2,0.3-3,0.5c-1,0.2-2,0.4-3,0.5
		c-0.7,0.1-1.4,0.2-2.1,0.4c-0.7,0.1-1.4,0.2-2.1,0.4c-0.8,0.1-1.6,0.3-2.4,0.4c-0.9,0.2-1.8,0.3-2.6,0.5C26,6.7,25.1,6.8,24.3,7
		c-0.7,0.1-1.5,0.3-2.2,0.4c-0.9,0.2-1.8,0.3-2.8,0.5c-0.8,0.1-1.7,0.3-2.5,0.4c-0.9,0.2-1.7,0.3-2.6,0.5c-0.8,0.1-1.6,0.3-2.4,0.4
		c-0.7,0.1-1.4,0.2-2.1,0.4C8.8,9.7,7.9,9.8,7.1,10c-0.7,0.1-1.4,0.2-2.1,0.4c0,0-0.1,0-0.1,0.1v0.3c0,0.2,0.1,0.3,0.1,0.5
		c0.1,0.7,0.3,1.4,0.4,2c0.2,0.9,0.3,1.8,0.5,2.7C6,17,6.2,18,6.4,19.1c0,0.1,0.1,0.2,0.1,0.3c0,0.1,0.1,0.1,0.2,0.1
		c0.3,0,0.7,0.1,1,0.2c1.6,0.3,2.6,1.3,3.1,2.8c0.5,1.7-0.1,3.1-1.3,4.2c-0.3,0.3-0.7,0.5-1.1,0.7c-0.1,0.1-0.3,0.1-0.4,0.2
		c-0.1,0-0.1,0.1-0.1,0.2c0.1,0.5,0.2,0.9,0.2,1.4c0.1,0.7,0.2,1.4,0.3,2c0.1,0.8,0.3,1.5,0.4,2.3c0.1,0.6,0.2,1.3,0.3,1.9
		c0,0.2,0,0.4,0.1,0.6h0.3C9.8,36,10,36,10.1,36c0.9-0.2,1.9-0.3,2.8-0.5c0.9-0.2,1.8-0.3,2.7-0.5c0.8-0.1,1.7-0.3,2.5-0.4
		c1.2-0.2,2.3-0.4,3.5-0.6c0.9-0.2,1.9-0.3,2.8-0.5c0.7-0.1,1.4-0.2,2.1-0.4c0.8-0.1,1.6-0.3,2.4-0.4c0.8-0.1,1.6-0.3,2.4-0.4
		c0.8-0.1,1.6-0.3,2.4-0.4c0.8-0.1,1.5-0.3,2.3-0.4c0.8-0.1,1.6-0.3,2.3-0.4c0.8-0.1,1.6-0.3,2.3-0.4c0.7-0.1,1.3-0.2,2-0.3
		c0.7-0.1,1.4-0.2,2.1-0.4c0.6-0.1,1.2-0.2,1.8-0.3c0.8-0.1,1.5-0.3,2.3-0.4c0.8-0.1,1.6-0.3,2.4-0.4c0.8-0.1,1.5-0.3,2.3-0.4
		c0.8-0.2,1.7-0.3,2.5-0.5c0.7-0.1,1.4-0.2,2-0.4c0.1,0,0.2,0,0.3-0.1c0.1,0,0.2-0.1,0.2-0.2c0-0.3,0.1-0.7,0.3-1
		C59,26.2,59,26.1,58.9,26z M58.4,25.3c-1.2,0.2-2.3,0.4-3.5,0.6c-1.3,0.2-2.5,0.4-3.8,0.7c-1.5,0.3-2.9,0.5-4.4,0.8
		c-1.8,0.3-3.6,0.6-5.4,0.9c-1.6,0.3-3.3,0.6-4.9,0.9c-2,0.3-4,0.7-6,1c-2,0.4-4.1,0.7-6.1,1.1c-1.7,0.3-3.5,0.6-5.2,0.9
		c-1.6,0.3-3.2,0.6-4.8,0.8c-0.2,0-0.3,0-0.5,0c0,0-0.1-0.1-0.1-0.1c-0.1-0.5-0.2-0.9-0.2-1.4c-0.2-1-0.3-2-0.5-3
		c-0.2-1.2-0.4-2.4-0.6-3.6c-0.3-1.5-0.5-3-0.8-4.6c-0.3-1.7-0.6-3.5-0.9-5.2c-0.2-1.1-0.4-2.3-0.6-3.4c0-0.1,0-0.1,0-0.1
		c0.4-0.1,0.8-0.1,1.2-0.2c0.9-0.2,1.9-0.3,2.8-0.5c1-0.2,2-0.3,3-0.5c1.8-0.3,3.5-0.6,5.3-0.9c1.7-0.3,3.3-0.6,5-0.9
		C28.8,8.3,30.4,8,32,7.8c1.8-0.3,3.7-0.6,5.5-1C39,6.5,40.5,6.3,42,6c1.8-0.3,3.7-0.6,5.5-1c1.9-0.3,3.8-0.7,5.7-1
		C53.6,4,54,3.9,54.4,3.8c0.1,0,0.1,0,0.2,0.1c0,0.1,0,0.1,0,0.2c0,0.1,0,0.1-0.1,0.1c-1,0.2-1.9,0.3-2.9,0.5
		c-1.2,0.2-2.3,0.4-3.5,0.6c-1.3,0.2-2.7,0.5-4,0.7c-1.1,0.2-2.2,0.4-3.2,0.6c-1.1,0.2-2.2,0.4-3.4,0.6c-1.8,0.3-3.5,0.6-5.3,0.9
		c-1.7,0.3-3.3,0.6-5,0.9c-1.8,0.3-3.5,0.6-5.3,0.9c-2,0.3-3.9,0.7-5.9,1c-1.8,0.3-3.5,0.6-5.3,0.9c-0.1,0-0.1,0.1-0.1,0.1
		c0.4,2.1,0.7,4.1,1.1,6.2c0.4,2.1,0.7,4.3,1.1,6.4c0.3,1.6,0.6,3.2,0.8,4.9c0.2,1,0.3,1.9,0.5,2.9c0,0.1,0.1,0.1,0.2,0.1
		c0.7-0.1,1.4-0.3,2.1-0.4c1-0.2,2-0.4,3-0.5c1.8-0.3,3.5-0.6,5.3-0.9c1.7-0.3,3.3-0.6,5-0.9c1.5-0.3,2.9-0.5,4.4-0.8
		c1.5-0.3,3-0.5,4.5-0.8c1.4-0.2,2.7-0.5,4.1-0.7c1.7-0.3,3.3-0.6,5-0.9c1.8-0.3,3.5-0.6,5.3-0.9c1.8-0.3,3.6-0.6,5.3-0.9
		c0.1,0,0.1,0,0.1,0.1c0,0,0,0.1,0,0.1C58.6,25.2,58.6,25.2,58.4,25.3z"/>
	<path class="st0" d="M22.8,20.3c0.5,0.3,1,0.5,1.5,0.7c0.2,0.1,0.2,0.2,0.3,0.3c0.1,0.7,0.3,1.4,0.4,2.1c0,0.2,0,0.5,0.1,0.8
		c0,0.1,0,0.2-0.1,0.2c-0.4,0.5-0.8,1.1-1.2,1.6c-0.1,0.2-0.3,0.3-0.5,0.3c-1.4,0.2-2.8,0.5-4.2,0.8c-0.2,0-0.2,0-0.3-0.2
		c-0.2-1.1-0.4-2.1-0.6-3.2c-0.4-1.9-0.7-3.8-1.1-5.7c-0.1-0.7-0.2-1.4-0.4-2.1c0-0.2,0-0.3,0.2-0.3c0.6-0.1,1.1-0.2,1.7-0.3
		c0.9-0.2,1.9-0.3,2.8-0.5c0.1,0,0.2,0,0.3,0.1c0.5,0.3,1,0.6,1.5,1c0.1,0.1,0.1,0.2,0.2,0.2c0.2,0.9,0.4,1.8,0.5,2.7
		c0,0.1,0,0.2-0.1,0.3c-0.3,0.4-0.5,0.7-0.8,1C22.9,20.2,22.8,20.3,22.8,20.3z M21.7,21.7c-0.3,0.1-0.6,0.1-0.9,0.2
		c-0.2,0-0.2,0.1-0.2,0.2c0.1,0.2,0.1,0.5,0.2,0.7c0.1,0.5,0.2,0.9,0.3,1.4c0,0.1,0.1,0.2,0.2,0.2c0.2-0.1,0.5-0.1,0.7-0.2
		c0.1,0,0.1-0.1,0.1-0.2c-0.1-0.7-0.3-1.5-0.4-2.2C21.8,21.8,21.7,21.8,21.7,21.7z M20.7,17.2c-0.2,0-0.5,0.1-0.7,0.1
		c-0.2,0-0.2,0.1-0.2,0.2c0.1,0.7,0.2,1.4,0.4,2.1c0,0.1,0.1,0.1,0.2,0.1c0.3-0.1,0.5-0.1,0.8-0.2c0.1,0,0.2-0.1,0.1-0.2
		c0-0.2-0.1-0.3-0.1-0.5c-0.1-0.5-0.2-1-0.3-1.5C20.9,17.3,20.9,17.2,20.7,17.2z"/>
	<path class="st0" d="M54.2,20.7c-0.5,0.1-1,0.2-1.4,0.3c-0.4,0.1-0.9,0.1-1.3,0.2c-0.2,0-0.3,0-0.4-0.2c-0.8-1.2-1.6-2.5-2.4-3.7
		c-0.1-0.1-0.2-0.3-0.3-0.4c0,0-0.1,0-0.1,0c0.3,1.5,0.6,3.1,0.9,4.6c-0.5,0.1-0.9,0.2-1.4,0.3c-0.4,0.1-0.7,0.1-1.1,0.2
		c-0.2,0-0.2,0-0.3-0.2c-0.2-1-0.4-2-0.6-3c-0.5-2.7-1-5.3-1.5-8c0-0.2,0-0.3,0.2-0.3c0.8-0.1,1.5-0.3,2.3-0.4c0.2,0,0.2,0,0.2,0.2
		c0.3,1.4,0.5,2.9,0.8,4.3c0,0.1,0,0.1,0.1,0.2c0-0.1,0.1-0.2,0.1-0.4c0.2-1.5,0.5-3,0.7-4.4c0-0.1,0.1-0.2,0.2-0.2
		c0.8-0.1,1.5-0.3,2.3-0.5c0.1,0,0.1,0,0.3,0c-0.1,0.3-0.1,0.6-0.2,0.9c-0.4,1.5-0.7,3.1-1.1,4.6c0,0.1,0,0.3,0.1,0.4
		c1.2,1.7,2.4,3.4,3.5,5.1C54.1,20.4,54.2,20.5,54.2,20.7z"/>
	<path class="st0" d="M33.7,24.4c0,0-0.1-0.1-0.2-0.1c-0.6-0.4-1.2-0.8-1.8-1.2c-0.1-0.1-0.2-0.2-0.2-0.3c-0.3-1.4-0.5-2.9-0.8-4.3
		c-0.2-1.1-0.4-2.1-0.6-3.2c0-0.2,0-0.3,0.1-0.4c0.4-0.6,0.9-1.2,1.3-1.8c0.1-0.1,0.2-0.2,0.4-0.2c0.8-0.1,1.6-0.3,2.5-0.4
		c0.1,0,0.2,0,0.3,0.1c0.6,0.4,1.2,0.7,1.9,1.1c0.1,0.1,0.2,0.2,0.2,0.3c0.5,2.4,0.9,4.8,1.4,7.2c0,0.2,0.1,0.3,0.1,0.5
		c0,0.1,0,0.2-0.1,0.3c-0.4,0.6-0.9,1.2-1.3,1.8c-0.1,0.1-0.2,0.1-0.3,0.2c-0.9,0.2-1.7,0.3-2.6,0.5C33.8,24.4,33.8,24.4,33.7,24.4z
		 M35.2,21.7c0-0.1,0-0.2,0-0.2c-0.2-1.2-0.4-2.3-0.6-3.5c-0.2-1-0.4-2-0.6-2.9c0-0.2-0.1-0.2-0.3-0.2c-0.2,0-0.4,0.1-0.6,0.1
		c-0.2,0-0.2,0.1-0.2,0.3c0.2,1,0.4,2,0.6,3c0.2,1.2,0.4,2.4,0.7,3.6c0,0.2,0.1,0.3,0.3,0.2c0.2,0,0.3-0.1,0.5-0.1
		C35.1,21.9,35.2,21.9,35.2,21.7z"/>
	<path class="st0" d="M41.8,15.7c-0.1-0.3-0.1-0.6-0.2-0.8c-0.1-0.4-0.2-0.8-0.2-1.1c0-0.2-0.1-0.2-0.3-0.2c-0.2,0-0.5,0.1-0.7,0.1
		c-0.2,0-0.2,0.1-0.2,0.3c0.2,0.8,0.3,1.6,0.5,2.4c0.3,1.4,0.5,2.7,0.8,4.1c0.1,0.3,0.1,0.3,0.4,0.3c0.2,0,0.4-0.1,0.6-0.1
		c0.2,0,0.2-0.1,0.2-0.3c-0.1-0.8-0.3-1.5-0.4-2.3c0-0.1,0-0.2,0.1-0.2c0.8-0.1,1.5-0.3,2.3-0.4c0.1,0,0.1,0,0.2,0.1
		c0.2,1,0.4,2,0.6,2.9c0,0.1,0,0.2-0.1,0.2c-0.4,0.5-0.8,1-1.1,1.5c-0.3,0.4-0.7,0.5-1.1,0.5c-0.6,0.1-1.2,0.2-1.8,0.3
		c-0.1,0-0.3,0-0.4-0.1c-0.6-0.4-1.3-0.7-1.9-1.1c-0.1-0.1-0.2-0.2-0.2-0.3c-0.5-2.4-0.9-4.9-1.4-7.3c-0.1-0.4,0-0.6,0.2-0.9
		c0.4-0.5,0.7-1,1.1-1.5c0.1-0.1,0.2-0.2,0.3-0.2c0.9-0.2,1.7-0.3,2.6-0.5c0.2,0,0.3,0,0.4,0.1c0.6,0.4,1.1,0.7,1.7,1.1
		c0.1,0.1,0.2,0.2,0.2,0.3c0.2,0.8,0.3,1.6,0.4,2.3c0,0.1,0.1,0.2-0.1,0.3C43.5,15.3,42.7,15.5,41.8,15.7z"/>
	<path class="st0" d="M31.2,24.6c0,0.3-0.1,0.3-0.4,0.4c-0.6,0.1-1.3,0.2-1.9,0.4c-0.9,0.2-1.8,0.3-2.6,0.5c-0.2,0-0.2,0-0.3-0.2
		c-0.3-1.4-0.5-2.7-0.8-4.1c-0.4-2.1-0.8-4.1-1.2-6.2c0-0.2-0.1-0.5-0.1-0.7c0-0.1,0-0.2,0.1-0.2c0.8-0.1,1.6-0.3,2.3-0.4
		c0.2,0,0.2,0.1,0.3,0.3c0.3,1.5,0.6,3.1,0.9,4.6c0.3,1.4,0.6,2.7,0.8,4.1c0,0.2,0.1,0.2,0.3,0.2c0.6-0.1,1.3-0.2,1.9-0.3
		c0.1,0,0.2,0,0.2,0.1C30.9,23.5,31.1,24,31.2,24.6z"/>
	<path d="M15.8,22.6C15.8,22.7,15.9,22.7,15.8,22.6c0.1,0.5,0.2,0.9,0.3,1.3c0,0.1,0,0.1-0.1,0.1c-0.1,0-0.3,0.1-0.4,0.1
		c-0.1,0-0.1,0-0.1-0.1c-0.1-0.3-0.1-0.5-0.2-0.8c0-0.1-0.1-0.3-0.1-0.4c0-0.1,0-0.1,0.1-0.1C15.5,22.7,15.6,22.7,15.8,22.6z"/>
	<path d="M15.3,20.2c0.1,0,0.1,0.1,0.1,0.1c0.1,0.3,0.1,0.5,0.2,0.8c0,0.1,0,0.2,0,0.3c0,0.1,0,0.1-0.1,0.1c-0.1,0-0.3,0.1-0.4,0.1
		c-0.1,0-0.1,0-0.1-0.1c-0.1-0.4-0.1-0.8-0.2-1.1c0-0.1,0-0.1,0.1-0.1C15,20.2,15.1,20.2,15.3,20.2z"/>
</g>
</svg>
