<?xml version="1.0" encoding="utf-8"?>
<!-- Generator: Adobe Illustrator 26.3.1, SVG Export Plug-In . SVG Version: 6.00 Build 0)  -->
<svg version="1.1" id="Camada_1" xmlns="http://www.w3.org/2000/svg" xmlns:xlink="http://www.w3.org/1999/xlink" x="0px" y="0px"
	 viewBox="0 0 2580.1 1533" style="enable-background:new 0 0 2580.1 1533;" xml:space="preserve">
<style type="text/css">
	.st0{fill:#FFFFFF;}
</style>
<polygon class="st0" points="-259.8,2969.9 -259.8,2988.3 -280.4,2988.3 -280.4,2983.4 -285.6,2988.7 -289.2,2985.1 -283.2,2979.1 
	-289.2,2973.1 -285.6,2969.5 -280.4,2974.8 -280.4,2969.9 "/>
<g>
	<path d="M2515.4,1082.6c-7.9-13.6-10.8-28.7-11.5-44c-1.2-23.5-9.3-44.6-18.8-65.7c-6.9-15.3-13.5-30.8-18.5-46.7
		c-6.2-19.9-5.8-40.8-6-61.4c-0.4-40.6,0-81.3-0.4-121.9c-0.2-24.1-1-48.3-2.1-72.4c-0.3-6.6-3.2-13-4.4-19.6
		c-0.6-2.9-0.9-6.6,0.4-9.1c4.3-8.3,3.4-16.3,0.6-24.6c-2.4-7.2-5.8-14.5-3.1-22.3c1.8-5.2,4.2-10.1,6.7-15
		c9.4-18.3,16.7-37.2,20.6-57.5c1.7-8.7,1.2-16.7-4-24.3c-5-7.3-6.1-15.3-5-24.3c0.8-6.4-0.3-13.2-1.7-19.6c-1-4.8-4.7-7.9-9.8-9.7
		c-2.7-0.9-5.8-3.9-6.6-6.6c-3.5-11.7-6.9-23.5-9.1-35.5c-2.4-12.9-3.2-26-5.2-39c-0.7-4.5-3.7-8.5-4.7-13
		c-2.1-10-4.3-20.1-5.1-30.2c-1.3-14.9-0.6-30-2.4-44.8c-1.2-10.1-4-20.3-7.9-29.6c-11.1-26.7-25.9-51.3-44.5-73.6
		c-3.8-4.6-8.3-8.6-12.8-12.6c-14.1-12.4-24.3-27.2-28.8-45.7c-0.5-1.9-0.6-3.9-0.7-5.9c-0.4-6.1-1.5-11.7-7.3-15.5
		c-2.3-1.5-4-4.6-4.8-7.4c-3.9-14.1-7.3-28.2-10.8-42.4c-0.8-3.4-1.3-6.8-2.1-10.2c-1.4-6.1-4.8-10.3-11.1-12.2
		c-6.7-1.9-11.4-6.5-14.7-12.7c-4.1-7.7-6.5-9-14.7-7.5c-28.9,5.3-57.8,10.8-86.7,15.9c-32.2,5.7-64.5,11.1-96.7,16.8
		c-38.8,6.8-77.5,13.7-116.2,20.6c-36.5,6.5-72.9,13-109.4,19.3c-32.4,5.6-64.8,11.1-97.2,16.7c-44.8,7.8-89.7,15.5-134.5,23.4
		c-44.2,7.8-88.2,15.9-132.4,23.6c-32.1,5.6-64.2,10.8-96.3,16.2c-31.2,5.4-62.5,10.9-93.7,16.4c-35.2,6.2-70.3,12.4-105.5,18.6
		c-39.2,6.9-78.5,13.8-117.8,20.7c-39.1,6.8-78.2,13.6-117.3,20.4c-33,5.8-66.1,11.6-99.1,17.4c-41.2,7.2-82.4,14.5-123.6,21.6
		c-37.6,6.5-75.3,13-112.9,19.5c-38.6,6.7-77.2,13.6-115.8,20.4c-35.2,6.2-70.3,12.6-105.4,18.7c-31.9,5.5-63.9,10.8-95.8,16.3
		c-39.4,6.8-78.8,13.8-118.3,20.7c-31.6,5.5-63.2,10.9-94.7,16.5c-1.8,0.3-3.4,1.7-5.1,2.6v13c1.4,7.6,2.7,15.3,4.1,22.9
		c5.9,30.3,11.8,60.6,17.6,90.9c7.9,40.7,15.6,81.5,23.5,122.2c9,46.4,17.9,92.9,27,139.3c1,5.2,2.9,10.2,4.4,15.3
		c1.1,3.8,3.4,5.5,7.5,6c15.3,2,30.7,3.7,45.8,6.9c70.7,14.7,117.1,57,136.8,126c21.5,74.9-3.3,137.2-58,189.4
		c-13.8,13.2-30.2,22.8-47.4,31c-6.1,2.9-11.9,6.6-17.7,10.1c-3,1.9-4.2,4.6-3.5,8.5c3.8,20.9,7.5,41.8,11.1,62.7
		c5.2,30.6,10.4,61.2,15.5,91.8c5.8,34.2,11.6,68.4,17.4,102.6c4.8,28.1,9.7,56.3,14.4,84.4c1.5,9,2.2,18,3.3,27.1h14
		c7.3-1.4,14.5-3,21.8-4.3c41.7-7.3,83.4-14.4,125.1-21.7c40.7-7.1,81.4-14.2,122.2-21.3c37.9-6.6,75.9-13.1,113.9-19.7
		c52.3-9.1,104.7-18.1,157-27.3c42.3-7.4,84.7-15.1,127-22.5c32.1-5.6,64.2-10.8,96.3-16.3c35.5-6.1,71-12.3,106.5-18.5
		c35.7-6.2,71.3-12.4,107-18.6c35.2-6.2,70.3-12.5,105.5-18.6c34-5.9,68.1-11.5,102.1-17.4c35-6,70-12.2,105-18.4
		c34.8-6.1,69.6-12.4,104.5-18.5c29.4-5.2,58.9-10.4,88.3-15.5c32.1-5.5,64.2-10.9,96.2-16.5c27.5-4.8,54.9-9.6,82.4-14.4
		c33.9-5.9,67.7-11.7,101.6-17.6c35.2-6.1,70.3-12.3,105.5-18.5c34.3-6.1,68.7-12.2,102.9-18.5c38-7,76-14.4,114-21.4
		c30.5-5.6,61.1-11,91.7-16.6c4.2-0.8,8.5-1.8,12.5-3.2c4.5-1.5,7-4.9,7-9.8c-0.1-15.5,3.7-29.9,12.2-43
		C2516.9,1091.2,2517.7,1086.7,2515.4,1082.6z M2491.9,1049c-52.3,9.1-104.6,18.2-156.9,27.4c-56.4,9.9-112.8,19.8-169.1,29.7
		c-65.9,11.6-131.8,23.2-197.6,34.7c-80.6,14.1-161.3,28.2-241.9,42.3c-73.4,12.9-146.8,25.8-220.2,38.7
		c-89.3,15.7-178.6,31.3-267.9,47c-91.3,16-182.6,32-273.9,48c-77.9,13.6-155.7,27.3-233.6,40.9c-72.1,12.6-144.2,25.4-216.4,37.7
		c-7.5,1.3-15.6-0.2-23.3-0.8c-1-0.1-2.4-2.5-2.7-4c-3.7-20.5-7.3-40.9-10.8-61.4c-7.8-45.1-15.6-90.2-23.4-135.2
		c-9.2-53.3-18.5-106.5-27.8-159.8c-11.9-68.3-23.8-136.7-35.7-205c-13.5-77.5-26.8-155-40.3-232.6c-8.8-51-17.8-101.9-26.6-152.9
		c-0.4-2.3-0.6-4.5-0.9-6.5c17.6-3,34.7-6,51.9-9c41.6-7.3,83.2-14.6,124.9-21.9c44.4-7.8,88.8-15.5,133.3-23.2
		c79.2-13.9,158.3-27.8,237.5-41.7c74.9-13.1,149.8-26.2,224.7-39.3c71.4-12.5,142.9-25.1,214.3-37.7
		c82.3-14.4,164.6-28.8,246.8-43.2c66-11.6,132.1-23.2,198.1-34.8c82.4-14.4,164.9-28.8,247.3-43.2c84.9-14.9,169.8-29.8,254.7-44.8
		c18.7-3.3,37.4-6.5,56.1-9.9c4.3-0.8,6.7,0.2,7,4.9c0.2,3.1,0.9,6.2,1.6,9.3c0.8,3.7-0.2,5.4-4.2,6.1
		c-43.4,7.5-86.9,15.2-130.3,22.8c-52.3,9.2-104.6,18.3-156.8,27.4c-60.3,10.6-120.6,21.1-180.9,31.7c-48.5,8.5-97,17.1-145.5,25.6
		c-50.2,8.8-100.3,17.5-150.5,26.3c-79.2,13.9-158.3,27.8-237.5,41.7c-74.9,13.1-149.8,26.2-224.7,39.3c-79,13.8-158,27.8-237,41.6
		c-88,15.4-176,30.8-264,46.2c-79.5,13.9-159,27.9-238.5,41.8c-4.5,0.8-5.1,2.4-4.4,6.6c16.1,92.1,32.1,184.2,48.1,276.3
		c16.7,96,33.4,192.1,50,288.1c12.6,72.8,25.3,145.5,37.9,218.3c7.4,42.6,14.9,85.2,22,127.9c0.8,5,3,5.4,7,4.7
		c32.1-5.7,64.2-11.3,96.4-16.9c45.2-7.9,90.5-15.9,135.7-23.8c79.1-13.9,158.3-27.8,237.5-41.7c74.7-13.1,149.5-26.1,224.2-39.2
		c65.9-11.5,131.8-23.2,197.6-34.7c67.7-11.8,135.4-23.6,203.1-35.4c61.6-10.8,123.2-21.7,184.8-32.5
		c74.6-13.1,149.2-26.1,223.7-39.2c79.5-13.9,159-27.9,238.4-41.8c79.6-14,159.3-27.9,238.9-41.9c3.8-0.7,6.2-0.2,6.3,4.3
		c0.1,2,0.6,3.9,1,5.9C2501,1047.5,2501,1047.4,2491.9,1049z"/>
	<path class="st0" d="M895.2,828.2c23.1,11.5,45,22.6,67.1,33.1c6.8,3.2,10.2,7.7,11.5,15c5.6,31.4,11.9,62.6,17.3,94
		c1.9,11.1,2.2,22.6,2.6,33.9c0.1,3.4-1.2,7.4-3.2,10.1c-17.5,23.6-35.3,47.1-53.1,70.5c-5.8,7.6-12.9,11.9-22.9,13.7
		c-63.1,11.1-126,22.7-188.9,34.8c-8.6,1.6-10.6-1-12-8.3c-9.1-47.9-18.5-95.6-27.7-143.5c-16.3-84.5-32.7-169-48.8-253.6
		c-5.9-31-10.9-62.1-16.8-93.1c-1.5-8,1.4-11.6,8.6-13.1c25.5-5.3,50.9-10.8,76.5-15.7c41.5-7.9,83.1-15.6,124.7-23
		c3.7-0.7,8.6,0.3,11.8,2.3c22.6,14.2,45,28.6,67.2,43.5c3.4,2.3,6.5,6.8,7.3,10.7c8.1,40.9,15.8,81.8,23.2,122.8
		c0.7,3.8-1,9.1-3.5,12.3c-11.7,15.8-24,31-36.1,46.5C898.6,823,897.3,825.1,895.2,828.2z M845.4,890.5c-14.4,3.2-26.6,6.1-39,8.4
		c-6.9,1.3-8.2,4.7-6.8,11c2.5,11,4.3,22.3,6.8,33.3c4.7,20.9,9.5,41.8,14.4,62.7c1.2,5,3.5,8.5,9.6,7.1c11.1-2.5,22.1-4.8,33.2-7.3
		c4.8-1,6.4-3.8,5.4-8.7c-6.6-33.3-13-66.7-19.7-100.1C848.9,894.4,846.6,892.3,845.4,890.5z M801,687.5
		c-10.5,2.2-20.9,4.7-31.4,6.4c-6.8,1.1-8.6,4.5-7.4,10.7c5.6,31.3,11.1,62.6,16.5,93.9c0.9,5.2,3.7,6.4,8.4,5.4
		c11.6-2.6,23.3-5.1,35-7.6c4.5-1,7-2.9,5.8-8.3c-1.7-7.4-2.7-15-4.1-22.5c-4.3-22.5-8.7-45-13.1-67.5
		C809.5,692.7,808.5,687.2,801,687.5z"/>
	<path class="st0" d="M2305.2,842.7c-22.6,4.3-43.3,8.3-64,12c-19.6,3.6-39.3,6.6-58.8,10.4c-8,1.6-13-0.4-17.5-7.5
		c-35.2-55.4-70.8-110.5-106.2-165.7c-3.7-5.7-7.6-11.3-11.5-17c-1.2,0.4-2.3,0.9-3.5,1.3c13.2,68.8,26.3,137.6,39.7,207.3
		c-21.6,4-41.7,7.8-61.8,11.4c-16.6,2.9-33.3,5.1-49.8,8.6c-8.1,1.7-11-0.8-12.5-8.4c-8.4-44.2-17.2-88.4-25.6-132.6
		c-22.6-119.4-45.1-238.9-67.8-358.3c-1.6-8.2-0.6-11.6,8.9-13.1c34.5-5.5,68.8-12,103.1-18.6c6.9-1.3,9,0.8,10.2,7.4
		c12,64.7,24.3,129.4,36.6,194c0.5,2.9,1.7,5.7,4.7,8.6c1.2-5.5,2.6-11,3.5-16.6c11.1-66.1,22.1-132.3,32.9-198.5
		c1-6.4,3.4-9.6,10-10.9c34.3-6.7,68.5-13.8,102.7-20.7c3.2-0.6,6.5-0.8,11.7-1.3c-2.8,14.3-4.9,27.4-7.9,40.4
		c-16,69.2-32.1,138.4-48.3,207.6c-1.5,6.5-0.6,11.6,3.2,17.1c53.1,76.2,106.1,152.5,159,228.8
		C2299,832.5,2301.5,836.7,2305.2,842.7z"/>
	<path class="st0" d="M1384.1,1011.6c-2-1-5.8-2.3-9-4.4c-27.2-17.3-54.2-34.9-81.5-51.9c-5.8-3.6-8.3-8.3-9.5-14.6
		c-12.3-64.7-24.6-129.4-37.2-194c-9.3-47.8-19-95.5-28.7-143.2c-1.4-6.8-0.4-12.2,3.9-17.9c19.9-26.4,39.6-53.1,59-79.9
		c4.1-5.7,9.1-7.9,15.9-9.1c36.8-6.4,73.5-13.6,110.3-20c4.6-0.8,10.5,0,14.5,2.3c28.1,16.3,56,33,83.6,50.2
		c4.3,2.7,8.3,8.4,9.3,13.4c20.9,107.6,41.5,215.3,62,323.1c1.5,7.8,3.2,15.7,3.7,23.6c0.3,4.3-0.6,9.5-3,12.9
		c-19,27.1-38.3,53.9-58,80.4c-2.8,3.7-8.3,6.7-13,7.6c-38.5,7.3-77.2,14-115.8,20.9C1389.1,1011.2,1387.6,1011.2,1384.1,1011.6z
		 M1451.7,888.5c-0.5-3.6-0.8-7.3-1.5-10.9c-9.6-51.8-18.9-103.6-28.9-155.3c-8.5-43.9-17.9-87.6-26.7-131.4
		c-1.4-7.2-4.6-10.2-11.9-8.8c-9.3,1.8-18.6,3.8-28,5c-8,1.1-9.8,4.4-8.1,12.4c9.2,45,18,90,26.6,135.2
		c10.1,53.2,19.8,106.5,29.8,159.8c2.1,11.1,3.3,11.9,14.7,10c7.6-1.2,15.1-2.4,22.7-3.1C1448.6,900.7,1453.2,897.5,1451.7,888.5z"
		/>
	<path class="st0" d="M1748.3,619.6c-2.7-13.1-5.4-25.3-7.8-37.5c-3.4-17.1-6.8-34.3-9.8-51.5c-1.3-7.1-4.5-10.1-11.8-8.8
		c-10.3,1.7-20.6,3.1-30.9,4.4c-7.9,1-10.1,4.8-8.6,12.6c6.9,36.4,13.2,72.9,20.2,109.3c11.9,61.3,24.2,122.6,36.4,183.9
		c2.8,14.1,2.7,14.1,17.2,11.4c8.7-1.6,17.5-3.3,26.3-4.4c7.5-1,9.4-4.4,8-11.8c-6.4-34-12.1-68.2-18.5-102.2
		c-1.2-6.4,0.5-9.1,6.6-10.2c34.6-6.5,69.2-13.1,103.8-19.8c4.8-0.9,6.5,0.9,7.5,5.4c8.9,43.8,18.1,87.6,26.8,131.5
		c0.7,3.3-1.1,7.9-3.3,10.8c-16.5,22.5-34.1,44.2-49.8,67.3c-12.3,18-30.6,20.6-49.4,23.8c-26.9,4.5-53.7,9.8-80.6,13.9
		c-5.8,0.9-13.1-0.2-18.2-3c-29-15.9-57.8-32.4-86.2-49.3c-4.1-2.4-7.9-7.9-8.8-12.5c-21.2-109.5-41.4-219.1-63.2-328.4
		c-3.3-16.7-1.3-28.8,9.2-41.9c17.1-21.2,32.2-44.1,48.8-65.7c3.3-4.3,9.4-8,14.7-9c38.1-7.6,76.5-14.4,114.7-21.7
		c7-1.3,12.8-0.2,19,3.8c24.9,16.3,50.3,31.7,75.2,48.1c4,2.6,7.6,8.1,8.6,12.8c6.9,34.8,13.2,69.8,19.6,104.8
		c0.9,5.2,2.5,10.5-5.3,12.1C1822.2,604.8,1785.9,612.1,1748.3,619.6z"/>
	<path class="st0" d="M1271.8,1018c-1.1,11.5-3.9,14.5-17.4,17.1c-28.6,5.4-57.2,10.7-85.8,15.9c-39.5,7.2-79,14-118.4,21.5
		c-7.5,1.4-10.2-0.1-11.7-7.7c-11.8-60.7-24.3-121.3-35.9-182c-17.9-92.9-35.3-185.9-52.9-278.9c-2.1-11.1-3.7-22.3-5.8-33.5
		c-1-5.3,0.7-8,6.2-9c35-6,70-12,105-18.3c10.1-1.8,10.9,4.6,12.3,11.4c13.6,69.4,27.1,138.8,40.9,208.2
		c12.1,60.7,24.8,121.2,36.9,181.8c1.6,8.2,5.7,9.4,13,8.1c28.3-5,56.8-9.5,85.1-14.6c6-1.1,9.7,0.1,11.1,6
		C1260.1,968.6,1265.9,993.3,1271.8,1018z"/>
	<path d="M582.2,931.6c0.6,1,1.9,2.2,2.2,3.5c3.6,18.1,7.1,36.2,10.7,54.3c0.5,2.7-0.3,4.2-2.9,4.7c-6,1.3-12,2.6-18,4
		c-3.3,0.8-4.6-1.1-5.2-3.9c-2.6-11.3-5.3-22.7-7.8-34c-1.3-6-2.3-12.1-3.7-18.1c-0.8-3.4-0.1-5.3,3.7-6
		C567.8,934.9,574.4,933.3,582.2,931.6z"/>
	<path d="M558.1,821.3c4.1-0.1,4.6,2.9,5.2,5.6c2.4,12.2,4.8,24.4,7.1,36.7c0.8,4.1,1.3,8.2,2.2,12.2c0.7,2.9-0.7,4-3.1,4.5
		c-6.3,1.4-12.7,2.7-19,4.1c-2.6,0.6-4.1-0.1-4.6-2.9c-2.9-17-5.9-34-9-51c-0.6-3.4,0.3-5.2,4-5.8
		C546.8,823.9,552.4,822.5,558.1,821.3z"/>
</g>
</svg>
